<svg xmlns="http://www.w3.org/2000/svg" width="800" height="600">
  <rect width="100%" height="100%" fill="#fff"/>
  <text x="20" y="40" font-family="Arial" font-size="18" font-weight="bold">ERD Placeholder - Student Information System</text>
  <g transform="translate(20,80)">
    <rect x="0" y="0" width="220" height="120" fill="#f2f2f2" stroke="#333"/>
    <text x="10" y="20" font-family="Arial" font-size="14" font-weight="bold">Users</text>
    <text x="10" y="45">UserId (PK)</text>
    <text x="10" y="65">Username</text>
    <text x="10" y="85">PasswordHash</text>
  </g>
  <g transform="translate(260,80)">
    <rect x="0" y="0" width="260" height="140" fill="#f9f9f9" stroke="#333"/>
    <text x="10" y="20" font-family="Arial" font-size="14" font-weight="bold">Students</text>
    <text x="10" y="45">StudentId (PK)</text>
    <text x="10" y="65">FirstName</text>
    <text x="10" y="85">LastName</text>
    <text x="10" y="105">Email</text>
    <text x="10" y="125">DateOfBirth</text>
  </g>
  <g transform="translate(20,220)">
    <rect x="0" y="0" width="260" height="120" fill="#f9f9f9" stroke="#333"/>
    <text x="10" y="20" font-family="Arial" font-size="14" font-weight="bold">Courses</text>
    <text x="10" y="45">CourseId (PK)</text>
    <text x="10" y="65">Code</text>
    <text x="10" y="85">Title</text>
    <text x="10" y="105">Credits</text>
  </g>
  <g transform="translate(320,220)">
    <rect x="0" y="0" width="280" height="100" fill="#f2f2f2" stroke="#333"/>
    <text x="10" y="20" font-family="Arial" font-size="14" font-weight="bold">Enrollments</text>
    <text x="10" y="45">EnrollmentId (PK)</text>
    <text x="10" y="65">StudentId (FK)</text>
    <text x="10" y="85">CourseId (FK)</text>
  </g>
  <text x="20" y="560" font-family="Arial" font-size="12">Note: Export a PNG from Visual Paradigm Online for submission.</text>
</svg>